<?xml version="1.0" encoding="UTF-8" standalone="no"?>
<!DOCTYPE svg PUBLIC "-//W3C//DTD SVG 1.1//EN" "http://www.w3.org/Graphics/SVG/1.1/DTD/svg11.dtd">
<svg width="100%" height="100%" viewBox="0 0 668 667" version="1.1" xmlns="http://www.w3.org/2000/svg" xmlns:xlink="http://www.w3.org/1999/xlink" xml:space="preserve" xmlns:serif="http://www.serif.com/" style="fill-rule:evenodd;clip-rule:evenodd;stroke-linejoin:round;stroke-miterlimit:2;">
    <g transform="matrix(1,0,0,1,-666,-1333)">
        <g id="Back-Button--Body-" serif:id="Back Button (Body)" transform="matrix(0.971049,0,0,0.971049,318.8,1158.59)">
            <circle cx="701.51" cy="523.222" r="343.271" style="fill:rgb(235,235,235);"/>
            <clipPath id="_clip1">
                <circle cx="701.51" cy="523.222" r="343.271"/>
            </clipPath>
            <g clip-path="url(#_clip1)">
                <g id="Reply" transform="matrix(7.79081,6.72204e-31,9.60291e-32,7.79081,-12013.8,-23348.1)">
                    <path d="M1631.32,3055.07C1631.57,3055.07 1632.55,3055.1 1632.79,3055.11C1633.8,3055.16 1634.8,3055.24 1635.8,3055.37C1638.17,3055.68 1640.51,3056.24 1642.73,3057.12C1644.53,3057.83 1646.25,3058.77 1647.8,3059.93C1648.85,3060.7 1649.81,3061.58 1650.69,3062.54C1651.29,3063.19 1651.84,3063.89 1652.35,3064.62C1652.68,3065.08 1652.98,3065.56 1653.27,3066.04C1655.34,3069.54 1656.41,3073.57 1656.73,3077.61C1656.79,3078.37 1656.83,3079.14 1656.83,3079.91C1656.84,3080.85 1656.81,3081.78 1656.74,3082.72C1656.74,3082.75 1656.73,3082.78 1656.72,3082.81C1656.7,3082.88 1656.66,3082.93 1656.62,3082.99C1656.46,3083.15 1656.2,3083.18 1656.01,3083.05C1655.95,3083 1655.91,3082.95 1655.87,3082.89C1655.78,3082.71 1655.69,3082.51 1655.59,3082.32C1655.24,3081.62 1654.87,3080.93 1654.47,3080.25C1653.53,3078.63 1652.46,3077.09 1651.22,3075.69C1650.08,3074.39 1648.8,3073.21 1647.38,3072.22C1646.06,3071.29 1644.62,3070.53 1643.12,3069.96C1641.62,3069.39 1640.05,3069.01 1638.47,3068.79C1636.81,3068.57 1635.13,3068.51 1633.46,3068.59C1632.75,3068.62 1632.03,3068.68 1631.32,3068.76L1631.32,3078.97L1607.36,3061.95L1631.32,3044.95L1631.32,3055.07Z" style="fill:rgb(175,175,175);fill-rule:nonzero;"/>
                    <clipPath id="_clip2">
                        <path d="M1631.32,3055.07C1631.57,3055.07 1632.55,3055.1 1632.79,3055.11C1633.8,3055.16 1634.8,3055.24 1635.8,3055.37C1638.17,3055.68 1640.51,3056.24 1642.73,3057.12C1644.53,3057.83 1646.25,3058.77 1647.8,3059.93C1648.85,3060.7 1649.81,3061.58 1650.69,3062.54C1651.29,3063.19 1651.84,3063.89 1652.35,3064.62C1652.68,3065.08 1652.98,3065.56 1653.27,3066.04C1655.34,3069.54 1656.41,3073.57 1656.73,3077.61C1656.79,3078.37 1656.83,3079.14 1656.83,3079.91C1656.84,3080.85 1656.81,3081.78 1656.74,3082.72C1656.74,3082.75 1656.73,3082.78 1656.72,3082.81C1656.7,3082.88 1656.66,3082.93 1656.62,3082.99C1656.46,3083.15 1656.2,3083.18 1656.01,3083.05C1655.95,3083 1655.91,3082.95 1655.87,3082.89C1655.78,3082.71 1655.69,3082.51 1655.59,3082.32C1655.24,3081.62 1654.87,3080.93 1654.47,3080.25C1653.53,3078.63 1652.46,3077.09 1651.22,3075.69C1650.08,3074.39 1648.8,3073.21 1647.38,3072.22C1646.06,3071.29 1644.62,3070.53 1643.12,3069.96C1641.62,3069.39 1640.05,3069.01 1638.47,3068.79C1636.81,3068.57 1635.13,3068.51 1633.46,3068.59C1632.75,3068.62 1632.03,3068.68 1631.32,3068.76L1631.32,3078.97L1607.36,3061.95L1631.32,3044.95L1631.32,3055.07Z" clip-rule="nonzero"/>
                    </clipPath>
                    <g clip-path="url(#_clip2)">
                        <g transform="matrix(0.132183,-1.1405e-32,-1.62928e-33,0.132183,1499.91,2843.74)">
                            <rect x="781.82" y="1489.9" width="494.074" height="336.467" style="fill:rgb(175,175,175);"/>
                        </g>
                    </g>
                </g>
            </g>
        </g>
    </g>
</svg>
