<?xml version="1.0" encoding="UTF-8" standalone="no"?>
<!DOCTYPE svg PUBLIC "-//W3C//DTD SVG 1.1//EN" "http://www.w3.org/Graphics/SVG/1.1/DTD/svg11.dtd">
<svg width="100%" height="100%" viewBox="0 0 668 667" version="1.1" xmlns="http://www.w3.org/2000/svg" xmlns:xlink="http://www.w3.org/1999/xlink" xml:space="preserve" xmlns:serif="http://www.serif.com/" style="fill-rule:evenodd;clip-rule:evenodd;stroke-linecap:round;stroke-linejoin:round;stroke-miterlimit:1.5;">
    <g transform="matrix(1,0,0,1,-666,0)">
        <g id="Search-Button--Body-" serif:id="Search Button (Body)" transform="matrix(0.971049,0,0,0.971049,318.8,-174.741)">
            <circle cx="701.51" cy="523.222" r="343.271" style="fill:rgb(235,235,235);"/>
            <clipPath id="_clip1">
                <circle cx="701.51" cy="523.222" r="343.271"/>
            </clipPath>
            <g clip-path="url(#_clip1)">
                <g transform="matrix(1,0,0,1,-328.304,179.951)">
                    <g transform="matrix(1.00725,1.00725,-0.489053,0.489053,196.104,-941.099)">
                        <rect x="1138.18" y="414.292" width="108.141" height="54.656" style="fill:rgb(175,175,175);stroke:rgb(175,175,175);stroke-width:21.08px;"/>
                    </g>
                    <g transform="matrix(1,0,0,1,44.2327,-5.68434e-14)">
                        <path d="M985.582,192.065C1069.04,192.065 1136.79,259.818 1136.79,343.271C1136.79,426.725 1069.04,494.478 985.582,494.478C902.128,494.478 834.375,426.725 834.375,343.271C834.375,259.818 902.128,192.065 985.582,192.065ZM985.582,229.866C1048.17,229.866 1098.99,280.682 1098.99,343.271C1098.99,405.861 1048.17,456.676 985.582,456.676C922.992,456.676 872.177,405.861 872.177,343.271C872.177,280.682 922.992,229.866 985.582,229.866Z" style="fill:rgb(175,175,175);stroke:rgb(175,175,175);stroke-width:23.6px;"/>
                    </g>
                </g>
            </g>
        </g>
    </g>
</svg>
