<?xml version="1.0" encoding="UTF-8" standalone="no"?>
<!DOCTYPE svg PUBLIC "-//W3C//DTD SVG 1.1//EN" "http://www.w3.org/Graphics/SVG/1.1/DTD/svg11.dtd">
<svg width="100%" height="100%" viewBox="0 0 627 259" version="1.1" xmlns="http://www.w3.org/2000/svg" xmlns:xlink="http://www.w3.org/1999/xlink" xml:space="preserve" xmlns:serif="http://www.serif.com/" style="fill-rule:evenodd;clip-rule:evenodd;stroke-linejoin:round;stroke-miterlimit:2;">
    <g transform="matrix(1,0,0,1,-1357,-1567)">
        <g transform="matrix(1.35463,0,0,1.35463,-660.143,-561.381)">
            <path d="M1846.84,1758.97C1844.82,1760.76 1842.21,1761.74 1839.51,1761.74L1500.71,1761.74C1494.59,1761.74 1489.63,1756.79 1489.63,1750.67C1489.63,1717.03 1489.63,1616.3 1489.63,1582.66C1489.63,1576.55 1494.59,1571.59 1500.71,1571.59C1556.36,1571.59 1804.21,1571.59 1839.51,1571.59C1842.21,1571.59 1844.82,1572.58 1846.84,1574.36C1860.98,1586.85 1919.01,1638.1 1941.96,1658.37C1944.34,1660.47 1945.7,1663.49 1945.7,1666.67C1945.7,1669.84 1944.34,1672.86 1941.96,1674.97C1919.01,1695.23 1860.98,1746.49 1846.84,1758.97Z" style="fill:rgb(175,175,175);"/>
            <clipPath id="_clip1">
                <path d="M1846.84,1758.97C1844.82,1760.76 1842.21,1761.74 1839.51,1761.74L1500.71,1761.74C1494.59,1761.74 1489.63,1756.79 1489.63,1750.67C1489.63,1717.03 1489.63,1616.3 1489.63,1582.66C1489.63,1576.55 1494.59,1571.59 1500.71,1571.59C1556.36,1571.59 1804.21,1571.59 1839.51,1571.59C1842.21,1571.59 1844.82,1572.58 1846.84,1574.36C1860.98,1586.85 1919.01,1638.1 1941.96,1658.37C1944.34,1660.47 1945.7,1663.49 1945.7,1666.67C1945.7,1669.84 1944.34,1672.86 1941.96,1674.97C1919.01,1695.23 1860.98,1746.49 1846.84,1758.97Z"/>
            </clipPath>
            <g clip-path="url(#_clip1)">
                <g transform="matrix(0.836481,0,0,0.869614,204.814,1269.99)">
                    <text x="1565.15px" y="494.478px" style="font-family:'PricedownBl-Regular', 'Pricedown', sans-serif;font-weight:900;font-size:174.197px;">post</text>
                </g>
            </g>
        </g>
    </g>
</svg>
